<svg width="131" height="35" fill="none" xmlns="http://www.w3.org/2000/svg"><path d="M0 28.03c0 3.62 2.963 6.566 6.605 6.566h20.792c3.642 0 6.605-2.946 6.605-6.565V7.363c0-3.62-2.964-6.565-6.605-6.565H6.605C2.963.798 0 3.743 0 7.363v20.668Z" fill="url(#a)"/><path d="m22.606 2.471-16.312 7.97 23.987-.433L27.35 4.08a3.553 3.553 0 0 0-4.743-1.609Z" fill="#8BC53F"/><path d="M26.354 5.399 5.08 10.719l26.419.686-.845-3.449a3.547 3.547 0 0 0-4.301-2.557Z" fill="#008F4C"/><path d="M28.48 25.328a2.452 2.452 0 0 0 2.46-2.444c0-1.35-1.102-2.445-2.46-2.445a2.452 2.452 0 0 0-2.459 2.445c0 1.35 1.101 2.444 2.46 2.444ZM27.771 10.287H5.128a.571.571 0 0 0-.574.568c0 .313.257.568.574.568H27.77c3.414 0 6.19 2.798 6.19 6.236l.06.725v-4.576c-1.29-2.11-3.61-3.52-6.25-3.52Z" fill="#fff"/><g opacity=".65" fill="#BA3827"><path opacity=".65" d="M4.417 30.67c.668 0 1.21-.54 1.21-1.203 0-.664-.542-1.202-1.21-1.202-.668 0-1.21.538-1.21 1.202 0 .664.542 1.202 1.21 1.202ZM4.052 27.715c.67-.148 1.096-.794.951-1.442-.145-.648-.807-1.053-1.477-.905-.67.149-1.097.795-.951 1.443.145.648.806 1.053 1.477.904ZM7.254 31.906c.668 0 1.21-.539 1.21-1.203s-.542-1.202-1.21-1.202c-.668 0-1.21.538-1.21 1.202 0 .664.542 1.203 1.21 1.203ZM6.936 28.805c.668 0 1.21-.538 1.21-1.202 0-.664-.542-1.202-1.21-1.202-.668 0-1.21.538-1.21 1.202 0 .664.542 1.202 1.21 1.202Z"/></g><path d="M47.772 25.022H44.11l6.883-18.344h3.222L61.1 25.022h-3.663l-1.318-3.785h-7.03l-1.318 3.785Zm7.176-6.987-2.343-6.697-2.343 6.697h4.686ZM69.448 11.482c.84 0 1.64.17 2.403.51.761.34 1.43.816 2.007 1.427a7.012 7.012 0 0 1 1.376 2.17c.342.835.514 1.746.514 2.737 0 .99-.172 1.903-.514 2.737a6.99 6.99 0 0 1-1.376 2.17 6.226 6.226 0 0 1-2.007 1.426c-.76.34-1.562.51-2.403.51-.566 0-1.06-.068-1.479-.203a7.84 7.84 0 0 1-1.099-.436 4.748 4.748 0 0 1-.936-.67v5.822h-3.369V11.628h2.49l.586 1.31a5.112 5.112 0 0 1 1.025-.728c.333-.174.732-.34 1.2-.494a5.034 5.034 0 0 1 1.582-.234Zm-3.807 6.844c0 1.107.322 1.99.967 2.649.645.66 1.445.99 2.403.99.956 0 1.757-.33 2.403-.99.645-.66.967-1.544.967-2.65 0-1.106-.322-1.989-.967-2.648-.644-.66-1.445-.99-2.403-.99-.957 0-1.758.33-2.403.99-.645.66-.967 1.542-.967 2.649ZM90.246 20.946a5.956 5.956 0 0 1-.806 1.513c-.362.505-.801.956-1.318 1.354a7.034 7.034 0 0 1-1.758.975 5.867 5.867 0 0 1-2.124.38 6.32 6.32 0 0 1-2.593-.54 6.953 6.953 0 0 1-2.139-1.47 7.12 7.12 0 0 1-1.464-2.169 6.56 6.56 0 0 1-.543-2.663c0-.951.181-1.839.543-2.664a7.122 7.122 0 0 1 1.464-2.169 6.912 6.912 0 0 1 2.139-1.47 6.32 6.32 0 0 1 2.593-.54 6.35 6.35 0 0 1 2.49.495c.78.33 1.464.796 2.05 1.398a6.671 6.671 0 0 1 1.392 2.17c.342.844.513 1.771.513 2.78 0 .156-.01.305-.029.45-.02.146-.04.287-.057.423l-.058.437h-9.375c.156.66.488 1.213.996 1.659.508.447 1.2.67 2.08.67.448 0 .824-.049 1.128-.146.302-.097.56-.213.775-.348.235-.155.43-.33.586-.525h3.515Zm-6.004-6.261c-.88 0-1.597.253-2.154.756a3.406 3.406 0 0 0-1.068 1.864h6.444a3.427 3.427 0 0 0-1.07-1.864c-.556-.503-1.274-.756-2.152-.756ZM96.543 25.022h-3.368V6.678h3.368v18.344ZM102.257 20.8c.078.448.293.825.644 1.136.35.311.82.466 1.406.466s1.051-.151 1.392-.451c.342-.3.514-.637.514-1.005 0-.31-.172-.554-.514-.728a7.169 7.169 0 0 0-1.274-.48 68.533 68.533 0 0 0-1.655-.45 6.292 6.292 0 0 1-1.654-.686 4.147 4.147 0 0 1-1.275-1.164c-.341-.476-.513-1.102-.513-1.878a3.715 3.715 0 0 1 1.318-2.854 5.099 5.099 0 0 1 1.522-.888c.586-.223 1.25-.334 1.993-.334 1.62 0 2.866.388 3.735 1.164a4.615 4.615 0 0 1 1.539 2.912h-3.222c-.078-.291-.288-.583-.629-.874-.342-.29-.767-.436-1.275-.436-.508 0-.904.125-1.186.379a1.198 1.198 0 0 0-.425.93c0 .312.17.554.514.729.341.174.766.334 1.274.48.508.145 1.06.301 1.655.465a6.475 6.475 0 0 1 1.654.713c.508.311.933.714 1.275 1.208.341.494.513 1.141.513 1.936 0 .544-.117 1.062-.351 1.558a3.893 3.893 0 0 1-.996 1.296 5.01 5.01 0 0 1-1.567.887c-.615.223-1.304.335-2.065.335-1.758 0-3.09-.397-4-1.194-.907-.796-1.43-1.853-1.567-3.173h3.22v.001ZM113.827 9.88c-.508 0-.953-.188-1.333-.567-.381-.38-.571-.82-.571-1.325s.19-.947.571-1.324c.382-.38.825-.568 1.333-.568s.952.189 1.332.568c.38.38.572.82.572 1.324 0 .505-.19.947-.572 1.325-.38.38-.824.568-1.332.568Zm1.611 15.142h-3.369V11.628h3.369v13.394ZM125.544 11.482c.801 0 1.534.131 2.197.394a4.8 4.8 0 0 1 1.714 1.136c.477.494.85 1.092 1.114 1.79.264.699.396 1.484.396 2.357v7.861h-3.368v-7.424c0-.873-.259-1.576-.776-2.112-.517-.533-1.186-.801-2.007-.801-.821 0-1.49.268-2.007.801-.517.534-.776 1.239-.776 2.112v7.424h-3.368V11.626h2.49l.586 1.31a7.053 7.053 0 0 1 1.083-.728 8.14 8.14 0 0 1 1.186-.494 4.825 4.825 0 0 1 1.536-.232Z" fill="#00527D"/><defs><linearGradient id="a" x1="30.74" y1="2.268" x2="2.726" y2="34.11" gradientUnits="userSpaceOnUse"><stop stop-color="#FCB94D"/><stop offset=".306" stop-color="#F7903F"/><stop offset=".775" stop-color="#F1562B"/><stop offset="1" stop-color="#EE4023"/></linearGradient></defs></svg>