<svg width="28" height="25" viewBox="0 0 28 25" fill="none" xmlns="http://www.w3.org/2000/svg">
<path d="M15.1 12.442L2.75 1.35602C2.51087 1.17201 2.20327 1.07586 1.88868 1.08678C1.57408 1.09769 1.27566 1.21488 1.05304 1.41492C0.830423 1.61495 0.700007 1.8831 0.687856 2.16579C0.675704 2.44847 0.782713 2.72486 0.987495 2.93973L12.3125 13.1159L1.3125 23.0001C1.07968 23.2105 0.949005 23.4952 0.949005 23.7919C0.949005 24.0887 1.07968 24.3733 1.3125 24.5838C1.4287 24.6891 1.56695 24.7726 1.71927 24.8296C1.8716 24.8867 2.03498 24.916 2.2 24.916C2.36501 24.916 2.52839 24.8867 2.68072 24.8296C2.83304 24.7726 2.97129 24.6891 3.0875 24.5838L15.1 13.7898C15.2985 13.6109 15.4099 13.3686 15.4099 13.1159C15.4099 12.8633 15.2985 12.6209 15.1 12.442Z" fill="#231F20"/>
<path d="M27.075 12.4434L14.725 1.35745C14.6129 1.23987 14.475 1.14438 14.32 1.07696C14.1649 1.00954 13.996 0.971656 13.8238 0.965681C13.6517 0.959706 13.48 0.985771 13.3196 1.04224C13.1592 1.09871 13.0135 1.18436 12.8917 1.29382C12.7699 1.40328 12.6745 1.53419 12.6117 1.67832C12.5489 1.82246 12.5199 1.97671 12.5265 2.1314C12.5332 2.28608 12.5753 2.43786 12.6503 2.57721C12.7254 2.71656 12.8316 2.84047 12.9625 2.94116L24.2875 13.1173L13.2875 23.0015C13.0547 23.212 12.924 23.4966 12.924 23.7934C12.924 24.0901 13.0547 24.3748 13.2875 24.5852C13.5217 24.7944 13.8385 24.9118 14.1688 24.9118C14.499 24.9118 14.8158 24.7944 15.05 24.5852L27.075 13.7913C27.2735 13.6123 27.3849 13.37 27.3849 13.1173C27.3849 12.8647 27.2735 12.6224 27.075 12.4434Z" fill="#231F20"/>
</svg>
